<?xml version="1.0" encoding="utf-8"?>
<!-- Generator: Adobe Illustrator 28.0.0, SVG Export Plug-In . SVG Version: 6.00 Build 0)  -->
<svg version="1.1" id="Capa_1" xmlns="http://www.w3.org/2000/svg" xmlns:xlink="http://www.w3.org/1999/xlink" x="0px" y="0px"
	 viewBox="0 0 512 512" style="enable-background:new 0 0 512 512;" xml:space="preserve">
<style type="text/css">
	.st0{fill:#0A64A0;}
</style>
<g>
	<path class="st0" d="M504.5,414.3h-48c-3.8-41.3-38.6-73.8-80.9-73.8s-77.1,32.5-80.9,73.8H7.5c-4.1,0-7.5,3.4-7.5,7.5
		s3.4,7.5,7.5,7.5h287.1c3.8,41.3,38.6,73.8,80.9,73.8c13.8,0,27.4-3.5,39.4-10.2c3.6-2,4.9-6.6,2.9-10.2c-2-3.6-6.6-4.9-10.2-2.9
		c-9.8,5.4-20.9,8.3-32.1,8.3c-36.5,0-66.3-29.7-66.3-66.3s29.7-66.3,66.3-66.3s66.3,29.7,66.3,66.3c0,14.7-4.7,28.7-13.7,40.3
		c-2.5,3.3-1.9,8,1.4,10.5c3.3,2.5,8,1.9,10.5-1.4c9.5-12.3,15.1-26.7,16.5-42h48c4.1,0,7.5-3.4,7.5-7.5S508.6,414.3,504.5,414.3
		L504.5,414.3z"/>
	<path class="st0" d="M7.5,203.4h52.1c4.1,0,7.5-3.4,7.5-7.5s-3.4-7.5-7.5-7.5H7.5c-4.1,0-7.5,3.4-7.5,7.5S3.4,203.4,7.5,203.4z"/>
	<path class="st0" d="M504.5,233.8c-16.3,0-24.9,3.5-32.5,6.5c-7.2,2.9-13.5,5.5-26.9,5.5s-19.7-2.5-26.9-5.5
		c-7.6-3.1-16.2-6.5-32.5-6.5c-16.3,0-24.9,3.5-32.5,6.5c-5.2,2.1-9.8,4-16.8,4.9c0.7-4.4,1.1-9,1.1-13.6c0-3.8-0.3-7.6-0.8-11.4
		c-0.6-4.2,0.6-8.4,3.5-11.7c2.9-3.3,7-5.2,11.4-5.2h153.1c4.1,0,7.5-3.4,7.5-7.5s-3.4-7.5-7.5-7.5H351.4c-8.7,0-17,3.8-22.7,10.4
		c-5.7,6.5-8.2,15.1-7,23.6c0.4,3,0.7,6.2,0.7,9.3c0,17.7-7,34.3-19.7,46.7c-12.7,12.4-29.4,19-47.2,18.6c-34-0.7-62-27.9-63.8-61.9
		c-0.2-4.2,0-8.4,0.5-12.5c1.2-8.7-1.4-17.4-7.1-24c-5.7-6.5-13.9-10.3-22.5-10.3H89.6c-4.1,0-7.5,3.4-7.5,7.5s3.4,7.5,7.5,7.5h72.9
		c4.4,0,8.4,1.8,11.2,5.1c2.9,3.3,4.2,7.7,3.6,12.1c-0.7,5-0.9,10.2-0.6,15.3c0.2,3.2,0.5,6.4,1.1,9.5c-8.2-0.8-13.3-2.8-18.9-5.1
		c-7.6-3.1-16.2-6.5-32.5-6.5c-16.3,0-24.9,3.5-32.5,6.5c-7.2,2.9-13.5,5.5-26.9,5.5s-19.7-2.5-26.9-5.5c-7.6-3.1-16.2-6.5-32.5-6.5
		c-4.1,0-7.5,3.4-7.5,7.5s3.4,7.5,7.5,7.5c13.4,0,19.7,2.5,26.9,5.5c7.6,3.1,16.2,6.5,32.5,6.5c16.3,0,24.9-3.5,32.5-6.5
		c7.2-2.9,13.5-5.5,26.9-5.5c13.4,0,19.7,2.5,26.9,5.5c7,2.8,14.9,6,28.8,6.5c11.5,29.4,40,50.5,73.1,51.2
		c21.8,0.5,42.4-7.6,58-22.9c8.4-8.2,14.7-17.9,18.8-28.4c12.6-0.7,20.1-3.7,26.7-6.4c7.2-2.9,13.5-5.5,26.9-5.5
		c13.4,0,19.7,2.5,26.9,5.5c7.6,3.1,16.2,6.5,32.5,6.5c16.3,0,24.9-3.5,32.5-6.5c7.2-2.9,13.5-5.5,26.9-5.5c4.1,0,7.5-3.4,7.5-7.5
		S508.6,233.8,504.5,233.8L504.5,233.8z"/>
	<path class="st0" d="M414.6,397.8h-15v-15c0-6.5-5.3-11.8-11.8-11.8h-24.5c-6.5,0-11.8,5.3-11.8,11.8v15h-15
		c-6.5,0-11.8,5.3-11.8,11.8V434c0,6.5,5.3,11.8,11.8,11.8h15v15c0,6.5,5.3,11.8,11.8,11.8h24.5c6.5,0,11.8-5.3,11.8-11.8v-15h15
		c6.5,0,11.8-5.3,11.8-11.8v-24.5C426.4,403.1,421.1,397.8,414.6,397.8z M411.4,430.8h-15c-6.5,0-11.8,5.3-11.8,11.8v15h-18.1v-15
		c0-6.5-5.3-11.8-11.8-11.8h-15v-18.1h15c6.5,0,11.8-5.3,11.8-11.8v-15h18.1v15c0,6.5,5.3,11.8,11.8,11.8h15V430.8z"/>
	<path class="st0" d="M68.5,350.9c2.3,1.8,5.9,4.6,12.3,4.6c6.4,0,10-2.8,12.3-4.6c1.6-1.2,1.8-1.4,3-1.4s1.5,0.2,3,1.4
		c2.3,1.8,5.9,4.6,12.3,4.6c4.1,0,7.5-3.4,7.5-7.5s-3.4-7.5-7.5-7.5c-1.2,0-1.5-0.2-3-1.4c-2.3-1.8-5.9-4.6-12.3-4.6
		s-9.9,2.8-12.3,4.6c-1.6,1.2-1.8,1.4-3,1.4c-1.2,0-1.5-0.2-3-1.4c-2.3-1.8-5.9-4.6-12.3-4.6c-4.1,0-7.5,3.4-7.5,7.5
		s3.4,7.5,7.5,7.5C66.7,349.5,66.9,349.7,68.5,350.9z"/>
	<path class="st0" d="M472.3,288.8c-1.2,0-1.5-0.2-3-1.4c-2.3-1.8-5.9-4.6-12.3-4.6c-6.4,0-10,2.8-12.3,4.6c-1.6,1.2-1.8,1.4-3,1.4
		s-1.5-0.2-3-1.4c-2.3-1.8-5.9-4.6-12.3-4.6c-4.1,0-7.5,3.4-7.5,7.5s3.4,7.5,7.5,7.5c1.2,0,1.5,0.2,3,1.4c2.3,1.8,5.9,4.6,12.3,4.6
		s10-2.8,12.3-4.6c1.6-1.2,1.8-1.4,3-1.4c1.2,0,1.5,0.2,3,1.4c2.3,1.8,5.9,4.6,12.3,4.6c4.1,0,7.5-3.4,7.5-7.5
		S476.5,288.8,472.3,288.8z"/>
	<path class="st0" d="M216.2,384.3c2.3,1.8,5.9,4.6,12.3,4.6c6.4,0,10-2.8,12.3-4.6c1.6-1.2,1.8-1.4,3-1.4s1.5,0.2,3,1.4
		c2.3,1.8,5.9,4.6,12.3,4.6c4.1,0,7.5-3.4,7.5-7.5s-3.4-7.5-7.5-7.5c-1.2,0-1.5-0.2-3-1.4c-2.3-1.8-5.9-4.6-12.3-4.6
		s-9.9,2.8-12.3,4.6c-1.6,1.2-1.8,1.4-3,1.4c-1.2,0-1.5-0.2-3-1.4c-2.3-1.8-5.9-4.6-12.3-4.6c-4.1,0-7.5,3.4-7.5,7.5
		s3.4,7.5,7.5,7.5C214.4,382.9,214.7,383.1,216.2,384.3L216.2,384.3z"/>
	<path class="st0" d="M135.6,308.2c2.9,0,5.7-1.7,6.9-4.6l6.8-16.2c1.6-3.8-0.2-8.2-4-9.8c-3.8-1.6-8.2,0.2-9.8,4l-6.8,16.2
		c-1.6,3.8,0.2,8.2,4,9.8C133.7,308,134.7,308.2,135.6,308.2z"/>
	<path class="st0" d="M364.4,312.2c1.4,1.3,3.3,2,5.1,2c2,0,4-0.8,5.5-2.4c2.8-3,2.6-7.8-0.4-10.6l-12.8-12c-3-2.8-7.8-2.6-10.6,0.4
		c-2.8,3-2.6,7.8,0.4,10.6L364.4,312.2z"/>
	<path class="st0" d="M43,301.7c1.4,1.1,3,1.6,4.7,1.6c2.2,0,4.4-1,5.9-2.8c2.6-3.2,2.1-8-1.2-10.5l-13.7-11
		c-3.2-2.6-8-2.1-10.5,1.2c-2.6,3.2-2.1,8,1.2,10.5L43,301.7z"/>
	<path class="st0" d="M124.2,385.1c1.3,2.8,4,4.4,6.8,4.4c1,0,2.1-0.2,3.1-0.7l16-7.2c3.8-1.7,5.5-6.1,3.8-9.9
		c-1.7-3.8-6.1-5.5-9.9-3.8l-16,7.2C124.2,376.9,122.5,381.4,124.2,385.1z"/>
	<path class="st0" d="M465.4,345.1l-6.8,16.2c-1.6,3.8,0.2,8.2,4,9.8c0.9,0.4,1.9,0.6,2.9,0.6c2.9,0,5.7-1.7,6.9-4.6l6.8-16.2
		c1.6-3.8-0.2-8.2-4-9.8C471.4,339.5,467,341.3,465.4,345.1z"/>
	<path class="st0" d="M212,202c-7.3,16.8-4.2,35.8,7.9,49.6c9,10.2,21.5,15.8,34.5,15.8c18.1,0,36-10.6,43.6-29.4
		c7.6-18.7,7.3-40.4-0.9-64.5c-6.9-20.4-19.3-41.8-35.9-61.9c-0.1-0.2-0.3-0.3-0.4-0.5l-0.3-0.4c-2.6-3.2-7.3-3.8-10.5-1.2
		c-3.2,2.6-3.8,7.3-1.2,10.5l0.2,0.3c0.2,0.2,0.4,0.5,0.6,0.7c33.4,40.5,46.3,82.1,34.5,111.3c-8.3,20.5-36.5,28-53,9.3
		c-8.3-9.4-10.4-22.3-5.4-33.7c11.5-26.6,10.9-56.3-1.6-88.2c-16.6-42.2-6.2-68.4,4.9-82.6c-2,14.5-2.4,34.1,4.1,53.8
		c1.3,3.9,5.5,6.1,9.5,4.8c3.9-1.3,6.1-5.5,4.8-9.5c-10.8-33,0.9-67,1-67.3c1-2.9,0.2-6.2-2.1-8.2c-2.3-2-5.7-2.4-8.4-1
		c-0.6,0.3-15.7,8.4-26.5,26.8c-17.8,30.4-10.5,65-1.2,88.6C221.2,153.3,221.8,179.2,212,202L212,202z"/>
</g>
</svg>
