<?xml version="1.0" encoding="utf-8"?>
<!-- Generator: Adobe Illustrator 28.0.0, SVG Export Plug-In . SVG Version: 6.00 Build 0)  -->
<svg version="1.1" id="Layer_1" xmlns="http://www.w3.org/2000/svg" xmlns:xlink="http://www.w3.org/1999/xlink" x="0px" y="0px"
	 viewBox="0 0 512 512" style="enable-background:new 0 0 512 512;" xml:space="preserve">
<style type="text/css">
	.st0{fill:#0A64A0;}
</style>
<g id="Thyroid">
	<path class="st0" d="M412.1,202.7c16-34.8,4.2-82.5-35.2-82.5c-7.3,0-14.4,1.9-20.6,5.6l21.3-71.1c7.8-22.5-4.2-47-26.7-54.8
		s-47,4.2-54.8,26.7c-0.4,1.1-0.7,2.2-1,3.3l-3.7,12.5c-5.8,19.8-26.6,31.1-46.4,25.3c-12.2-3.6-21.7-13.1-25.3-25.3L216,29.9
		C209.1,7,185-5.9,162.2,1s-35.8,31-28.9,53.8l21.3,71c-18.7-11.5-43.2-5.8-54.7,12.9c-1.3,2.2-2.5,4.5-3.4,6.9
		c-6.7,18.6-5.8,39.1,2.5,57.1c-35.8,42.9-35.8,105.3,0,148.2c-13.1,28.7-6.9,62.6,15.5,84.9c17.3,17.6,45.5,17.8,63.1,0.5
		c1.3-1.3,2.6-2.7,3.8-4.2c1,3.3,2.8,6.3,5.3,8.7c-3.7,3.6-5.8,8.5-5.8,13.6v38.3c0.1,10.4,8.5,18.9,18.9,18.9h111.9
		c10.5,0,18.9-8.5,18.9-18.9c0-0.1,0-0.1,0-0.2V454c0-5.1-2.1-10-5.8-13.6c2.6-2.5,4.4-5.6,5.3-9.1c15.1,19,42.6,22.4,62,7.7
		c26.7-20.6,33.5-58.4,20-88.2C448,307.9,447.9,245.6,412.1,202.7z M308.1,232.7c-34.5,8-70.5,8-105,0c-9.4-5.9-15.7-15.7-17.3-26.7
		l-3.2-22.1h146.1l-3.3,22.2C323.7,217,317.4,226.8,308.1,232.7L308.1,232.7z M148.7,23c10.7-14.4,31-17.4,45.4-6.7
		c5.6,4.2,9.7,10,11.7,16.7l3.8,12.5c7.5,25.4,34.2,39.9,59.6,32.4c15.6-4.6,27.8-16.8,32.4-32.4l3.7-12.5
		c4.8-17.2,22.7-27.3,40-22.5c17.2,4.8,27.3,22.7,22.5,40c-0.1,0.4-0.2,0.8-0.4,1.2l-36.7,121.6H180.3L143.7,51.7
		C140.6,41.9,142.5,31.2,148.7,23z M320,454v38.3c0,4.5-3.7,8.2-8.3,8.2H199.4c-4.5,0-8.2-3.7-8.3-8.2V454c0-4.6,3.7-8.3,8.3-8.3
		c0,0,0,0,0,0h112.4C316.3,445.8,320,449.5,320,454L320,454z M320,426.7c0,4.6-3.7,8.3-8.3,8.3c0,0,0,0,0,0H199.4
		c-4.6,0-8.3-3.7-8.3-8.3l0,0c0-31.5,0-21.3,0-27.9c0.1-6.7,3.7-12.8,9.5-16c36.5-3.3,73.2-3.3,109.7,0c5.8,3.3,9.5,9.3,9.6,16
		L320,426.7z M385.5,430.4c-15.2,11.3-36.7,8.2-48.1-7c-4.4-5.9-6.8-13.1-6.8-20.4c0.6-6.2-0.4-12.5-3-18.2c7.7,1.1,15,2.3,21.3,3.7
		c2.9,0.6,5.7-1.2,6.3-4.1c0,0,0,0,0,0c0.6-2.9-1.2-5.7-4.1-6.3c-11.7-2.4-23.5-4.2-35.4-5.3c-3.7-2-7.8-3-11.9-3.1
		c6.8-3.3,13.2-7.4,18.9-12.3c2.3-1.9,2.6-5.3,0.7-7.5s-5.3-2.6-7.5-0.7l0,0c-32.3,27.1-89,26.7-121,0c-2.3-1.9-5.6-1.6-7.5,0.7
		s-1.6,5.6,0.7,7.5l0,0c5.9,4.8,12.3,8.9,19.2,12.1c-4.3,0-8.5,1-12.3,3c-11.8,1.1-23.6,2.9-35.3,5.3c-2.9,0.6-4.7,3.4-4.1,6.3
		c0.6,2.9,3.4,4.7,6.3,4.1c0,0,0,0,0,0c6.3-1.4,13.5-2.6,21.3-3.6c-2.6,5.9-3.5,12.4-2.8,18.8c0.1,19-15.3,34.4-34.2,34.5
		c-9.2,0-18-3.6-24.4-10.1c-19.9-19.9-24.7-50.5-11.7-75.5c0.8-1.9,0.5-4-0.8-5.6C74,306.9,74,247,109.4,207.3
		c1.5-1.7,1.7-4.1,0.7-6c-8.3-16.1-9.6-34.9-3.4-51.9c9.7-26.4,48-23.8,55.9,2.8l8.4,27.8c4,27.9,3.9,35.5,11,46.7
		c-6.4-2.4-12.6-5.2-18.6-8.6c-2.6-1.4-5.8-0.5-7.3,2c-1.4,2.5-0.6,5.8,2,7.3c12.8,7,26.4,12.2,40.5,15.5c3.8,2.3,7.9,4.1,12.2,5.3
		c-8.1,3.3-15.7,7.7-22.6,13.2c-2.2,1.9-2.5,5.2-0.7,7.5c1.9,2.3,5.2,2.6,7.5,0.7c0,0,0,0,0,0c32-27,88.7-27.1,121,0
		c2.3,1.9,5.6,1.6,7.5-0.6c1.9-2.3,1.6-5.6-0.6-7.5c-6.9-5.7-14.5-10.3-22.7-13.8c4.3-1.2,8.3-3,12.1-5.3
		c14.2-3.3,27.8-8.5,40.5-15.5c2.6-1.4,3.5-4.7,2-7.3c-1.4-2.6-4.7-3.5-7.3-2.1c0,0,0,0,0,0c-6,3.3-12.2,6.2-18.6,8.6
		c3.6-5.6,6-11.9,7-18.5c5-35,2.3-22.2,12.3-55.5c4.7-15.7,21.3-24.6,37-19.9c9.3,2.8,16.7,10,19.7,19.2c5.4,16.4,3.9,34.3-4,49.7
		c-1,2-0.7,4.4,0.7,6c35.3,39.8,35.3,99.6,0,139.4c-1.5,1.6-1.8,4-0.7,6c13,25.4,8.6,59.6-15.5,78.1V430.4z"/>
	<path class="st0" d="M292.4,299.4c-2.5-1.6-5.8-0.8-7.4,1.7c0,0,0,0,0,0c-16,25.3-42.9,25.4-59,0c-1.6-2.5-4.9-3.2-7.4-1.7
		c-2.5,1.6-3.2,4.9-1.7,7.4c20.3,32,56.7,32,77.1,0C295.7,304.3,294.9,301,292.4,299.4C292.4,299.4,292.4,299.4,292.4,299.4z"/>
	<path class="st0" d="M151.4,278.1c-2.5-1.6-5.8-0.9-7.4,1.6c-6.4,10.1-16.3,10.1-22.6,0c-1.6-2.5-4.9-3.2-7.4-1.7c0,0,0,0,0,0
		c-2.5,1.6-3.2,4.9-1.7,7.4c0,0,0,0,0,0c10.7,16.7,30,16.7,40.6,0C154.6,282.9,153.9,279.7,151.4,278.1z"/>
	<path class="st0" d="M392.9,310.2c-2.5-1.6-5.8-0.8-7.4,1.7c0,0,0,0,0,0c-6.4,10-16,10-22.6,0c-1.6-2.5-4.9-3.2-7.4-1.6
		c-2.5,1.6-3.2,4.9-1.7,7.4c0,0,0,0,0,0c10.7,16.6,30,16.7,40.6,0C396.1,315.1,395.4,311.8,392.9,310.2
		C392.9,310.2,392.9,310.2,392.9,310.2z"/>
	<path class="st0" d="M392.9,169.1c-2.5-1.6-5.8-0.8-7.4,1.7c0,0,0,0,0,0c-6.4,10-16,10-22.6,0c-1.6-2.5-4.9-3.2-7.4-1.7
		c-2.5,1.6-3.2,4.9-1.7,7.4c10.7,16.7,30.1,16.6,40.6,0C396.1,174,395.3,170.7,392.9,169.1C392.9,169.1,392.9,169.1,392.9,169.1z"/>
</g>
</svg>
