<?xml version="1.0" encoding="utf-8"?>
<!-- Generator: Adobe Illustrator 28.0.0, SVG Export Plug-In . SVG Version: 6.00 Build 0)  -->
<svg version="1.1" id="Layer_1" xmlns="http://www.w3.org/2000/svg" xmlns:xlink="http://www.w3.org/1999/xlink" x="0px" y="0px"
	 viewBox="0 0 512 512" style="enable-background:new 0 0 512 512;" xml:space="preserve">
<style type="text/css">
	.st0{fill:#0A64A0;}
</style>
<path class="st0" d="M424,296c-0.1-39.6-32.1-71.7-71.7-72h-4.4c38-33.2,43.6-90.5,44.1-115.9c1-35.9-26.7-66.1-62.6-68.1
	c-14.7-0.3-29.1,4.5-40.7,13.5L288,23.8c0-4.3-3.5-7.8-7.9-7.8c-0.1,0-0.2,0-0.3,0c-4.4,0.1-7.9,3.8-7.8,8.2c0,0,0,0,0,0l0.7,29.6
	c0,6,3.5,11.5,9,14.2c5.5,2.7,12.1,2,16.9-1.8c8.7-6.8,19.4-10.4,30.4-10.1c27.1,1.8,47.9,24.7,46.9,51.9
	c-0.5,25.9-6.6,88.8-52.6,114c-21.4,11.7-47.2,7.8-64.9,2.6l-19.1-6.4c-4.1-1.4-8.4-2.1-12.7-2H224c-8.7,0-17.1,2.8-24,8h-27.1
	c7.5-14.6,22.4-23.9,38.9-24c4,0,8-0.9,11.7-2.8c18.6-9,33.4-24.3,41.7-43.3c11.1-26.4,4.5-50.4-3.7-74.8c-5-11.5-7-24.1-5.8-36.6
	c0.2-4.8,0.5-10.6,0.5-18.6c0-4.4-3.6-8-8-8s-8,3.6-8,8c0,7.6-0.3,13.2-0.5,17.8c-1.3,14.5,1,29.1,6.7,42.5
	c7.5,22.2,13,42.2,4.1,63.4c-6.8,15.4-18.9,27.9-34.1,35.1c-1.4,0.7-2.9,1.1-4.5,1.1c-25.8,0.1-48.7,16.7-56.8,41.2
	c-34.1,6.3-58.9,36.1-58.9,70.8v102.5l-1.3,3.1c-7,17.3,1.4,37,18.7,44c14.5,5.8,31.1,1,40.1-11.7c7.5,8.9,18.5,14.1,30.2,14.2h43.6
	c1.9,4.4,4.7,8.5,8.1,12c7.7,7.3,12.2,17.4,12.5,28c0,4.4,3.6,7.9,8,7.9c0,0,0,0,0,0c4.4,0,8-3.6,8-8.1
	c-0.3-14.8-6.5-28.9-17.1-39.2c-9.3-9.4-9.2-24.5,0.2-33.8c7.4-7.3,18.6-9,27.8-4.2c7.2,3.6,15.1,5.5,23.2,5.3h46
	c17.7,0,32-14.3,32-32v-80c0-17.7-14.3-32-32-32H176c-17.7,0-32,14.3-32,32v110.2c0,9.8-8,17.8-17.8,17.8c-9.9,0-17.8-8-17.8-17.8
	c0-2.3,0.4-4.5,1.3-6.6l1.8-4.6c0.4-0.9,0.6-2,0.6-3V296c0-30.9,25.1-56,56-56h34.8c2,0,3.8-0.7,5.3-2c4.4-3.9,10-6,15.9-6h2.8
	c2.6,0,5.1,0.4,7.6,1.2l19.3,6.4c22.1,7.4,45.9,7.6,68.1,0.4l30.5,0c30.8,0.2,55.7,25.2,55.7,56v96c0,30.9-25.1,56-56,56h-41.6
	c-16.8,0-30.4,13.6-30.4,30.4v9.6c0,4.4,3.6,8,8,8s8-3.6,8-8v-9.6c0-8,6.5-14.4,14.4-14.4H352c39.7,0,72-32.3,72-72V296z M160,304
	c0-8.8,7.2-16,16-16h168c8.8,0,16,7.2,16,16v80c0,8.8-7.2,16-16,16h-46c-5.5,0.1-10.9-1.1-15.8-3.5c-9.2-4.8-19.9-5.8-29.9-2.8
	c-4.5,1.3-8.6,3.5-12.3,6.3h-40c-4.4,0-8-3.6-8-8s3.6-8,8-8h120c13.3,0,24-10.7,24-24s-10.7-24-24-24H216c-4.4,0-8-3.6-8-8
	s3.6-8,8-8h80c4.4,0,8-3.6,8-8s-3.6-8-8-8h-80c-13.3,0-24,10.7-24,24s10.7,24,24,24h104c4.4,0,8,3.6,8,8s-3.6,8-8,8H200
	c-13.3,0-24,10.7-24,24s10.7,24,24,24h27.4c-1,2.2-1.7,4.4-2.3,6.7c-0.7,3.1-1,6.2-1,9.3h-40.3c-13.1,0-23.7-10.6-23.8-23.8V304z"/>
<path class="st0" d="M328,320h8c4.4,0,8-3.6,8-8s-3.6-8-8-8h-8c-4.4,0-8,3.6-8,8S323.6,320,328,320z"/>
<path class="st0" d="M320,176c0,4.4,3.6,8,8,8h8c4.4,0,8-3.6,8-8s-3.6-8-8-8h-8C323.6,168,320,171.6,320,176z"/>
<path class="st0" d="M320,136h-8c-4.4,0-8,3.6-8,8s3.6,8,8,8h8c4.4,0,8-3.6,8-8S324.4,136,320,136z"/>
<path class="st0" d="M288,168h-8c-4.4,0-8,3.6-8,8s3.6,8,8,8h8c4.4,0,8-3.6,8-8S292.4,168,288,168z"/>
<path class="st0" d="M296,200c-4.4,0-8,3.6-8,8s3.6,8,8,8h8c4.4,0,8-3.6,8-8s-3.6-8-8-8H296z"/>
</svg>
