<?xml version="1.0" encoding="UTF-8"?>
<svg id="Layer_1" data-name="Layer 1" xmlns="http://www.w3.org/2000/svg" viewBox="0 0 1832.9639 937.0953">
  <defs>
    <style>
      .cls-1, .cls-2 {
        letter-spacing: -.01em;
      }

      .cls-3 {
        letter-spacing: .3426em;
      }

      .cls-4 {
        letter-spacing: .0345em;
      }

      .cls-5 {
        letter-spacing: .3598em;
      }

      .cls-6 {
        letter-spacing: .0438em;
      }

      .cls-7 {
        letter-spacing: -.0837em;
      }

      .cls-8 {
        font-family: HelveticaNeue-Thin, 'Helvetica Neue';
        font-size: 180.2685px;
        font-weight: 200;
      }

      .cls-9 {
        font-size: 239.2652px;
      }

      .cls-9, .cls-10 {
        font-family: Helvetica-Bold, Helvetica;
        font-weight: 700;
      }

      .cls-9, .cls-10, .cls-11 {
        fill: #a51421;
      }

      .cls-12 {
        letter-spacing: .0294em;
      }

      .cls-13 {
        letter-spacing: .3503em;
      }

      .cls-14 {
        letter-spacing: .0416em;
      }

      .cls-15 {
        fill: #ffa801;
      }

      .cls-15, .cls-11 {
        stroke-width: 0px;
      }

      .cls-16 {
        letter-spacing: .3574em;
      }

      .cls-17 {
        letter-spacing: .3318em;
      }

      .cls-18 {
        letter-spacing: .04em;
      }

      .cls-19 {
        letter-spacing: .05em;
      }

      .cls-20 {
        letter-spacing: .0273em;
      }

      .cls-21 {
        letter-spacing: .3433em;
      }

      .cls-10 {
        font-size: 60.3948px;
      }

      .cls-22 {
        letter-spacing: .0415em;
      }

      .cls-23 {
        letter-spacing: .0291em;
      }

      .cls-24 {
        letter-spacing: .0273em;
      }

      .cls-25 {
        letter-spacing: .0413em;
      }

      .cls-26 {
        letter-spacing: .0089em;
      }

      .cls-27 {
        letter-spacing: .0385em;
      }

      .cls-28 {
        letter-spacing: .369em;
      }

      .cls-29 {
        letter-spacing: .0313em;
      }

      .cls-30 {
        letter-spacing: .0269em;
      }

      .cls-31 {
        letter-spacing: .0347em;
      }

      .cls-2 {
        opacity: 0;
      }

      .cls-32 {
        letter-spacing: .0368em;
      }

      .cls-33 {
        letter-spacing: .0459em;
      }

      .cls-34 {
        letter-spacing: .3582em;
      }

      .cls-35 {
        letter-spacing: .2625em;
      }

      .cls-36 {
        letter-spacing: .0274em;
      }

      .cls-37 {
        letter-spacing: .0314em;
      }
    </style>
  </defs>
  <text class="cls-10" transform="translate(476.3857 681.3511)"><tspan class="cls-31" x="0" y="0">M</tspan><tspan class="cls-37" x="52.4053" y="0">A</tspan><tspan class="cls-6" x="97.9165" y="0">K</tspan><tspan class="cls-14" x="144.1772" y="0">I</tspan><tspan class="cls-25" x="163.4692" y="0">N</tspan><tspan class="cls-19" x="209.5786" y="0">G A </tspan><tspan class="cls-26" x="345.8091" y="0">W</tspan><tspan class="cls-32" x="403.3501" y="0">O</tspan><tspan class="cls-23" x="452.5498" y="0">R</tspan><tspan class="cls-20" x="497.9229" y="0">L</tspan><tspan class="cls-19" x="536.4629" y="0">D </tspan><tspan class="cls-27" x="602.8975" y="0">O</tspan><tspan class="cls-19" x="652.1992" y="0">F </tspan><tspan class="cls-33" x="711.9102" y="0">D</tspan><tspan class="cls-18" x="758.2969" y="0">I</tspan><tspan class="cls-12" x="777.4922" y="0">F</tspan><tspan class="cls-24" x="816.1592" y="0">F</tspan><tspan class="cls-29" x="854.7002" y="0">E</tspan><tspan class="cls-30" x="896.873" y="0">R</tspan><tspan class="cls-4" x="942.1133" y="0">E</tspan><tspan class="cls-22" x="984.4795" y="0">N</tspan><tspan class="cls-36" x="1030.6016" y="0">C</tspan><tspan class="cls-19" x="1075.8711" y="0">E</tspan></text>
  <text class="cls-8" transform="translate(206.1304 588.7349)"><tspan class="cls-16" x="0" y="0">H</tspan><tspan class="cls-3" x="185.2075" y="0">O</tspan><tspan class="cls-13" x="380.5459" y="0">S</tspan><tspan class="cls-21" x="557.2612" y="0">P</tspan><tspan class="cls-5" x="725.6841" y="0">I</tspan><tspan class="cls-35" x="821.1899" y="0">T</tspan><tspan class="cls-34" x="962.0698" y="0">A</tspan><tspan class="cls-17" x="1133.5386" y="0">L</tspan><tspan class="cls-28" x="1283.4858" y="0">S</tspan></text>
  <text class="cls-9" transform="translate(0 409.9609)"><tspan class="cls-1" x="0" y="0">HEA</tspan><tspan class="cls-7" x="497.9896" y="0">L</tspan><tspan class="cls-1" x="624.1082" y="0">THW</tspan><tspan class="cls-2" x="1161.7025" y="0">O</tspan><tspan class="cls-1" x="1345.4178" y="0">RLD</tspan></text>
  <path class="cls-15" d="m1299.6086,244.3607c1.3032,1.0095,2.1418,1.7639,3.0774,2.3683,17.3316,11.196,28.3202,27.0849,33.9596,46.6768,6.5108,22.6186,6.404,45.2992-1.7885,67.4627-9.959,26.9434-28.973,44.2553-57.1704,50.9065-9.0426,2.1329-18.2286,2.7943-27.5848,2.0893-7.6079-.5732-15.0506-1.6895-22.2477-4.0877-22.4822-7.4915-38.2797-22.3696-47.7712-43.9527-5.3966-12.2714-7.8507-25.1783-8.0919-38.5927-.2406-13.385,1.471-26.4252,6.0202-39.0187,6.9447-19.2246,18.892-34.3651,37.0556-44.1954,9.7638-5.2843,20.2766-8.0248,31.3227-9.326,9.707-1.1435,19.222-.1399,29.0866,1.1125.9871-1.2877,2.1016-2.5502,3.0055-3.9486,19.8275-30.6756,38.9469-61.766,55.1827-94.5339,4.8729-9.8345,9.4489-19.8081,12.8853-30.2461,4.4085-13.3905,6.9759-27.0813,6.1554-41.2652-.3631-6.2778-1.5778-12.3768-3.9493-18.2071-4.2466-10.4414-11.5422-18.0806-21.6064-23.0939-8.2403-4.1047-17.0676-6.291-26.1688-6.9233-11.8993-.8267-23.8008-.3276-35.7145.6053-36.4139,2.8514-71.7281,10.9465-106.4317,21.9304-43.7068,13.8335-86.2467,30.666-127.571,50.5144-43.3487,20.8207-85.4623,43.97-127.1392,67.9136-21.0009,12.0651-41.7753,24.5238-62.6533,36.8026-5.8933,3.466-11.9371,6.5417-18.7727,7.7711-4.0839.7345-7.9155.0135-11.5863-1.7031-2.1126-.988-2.6251-2.9211-1.1439-4.6297,1.4755-1.7019,3.1028-3.355,4.9318-4.6517,4.1644-2.9524,8.3815-5.8618,12.7724-8.4593,48.042-28.4198,96.3137-56.4293,145.99-81.9494,39.9038-20.4997,80.4893-39.4915,122.3245-55.7459,30.6922-11.925,61.8719-22.3661,93.7774-30.5983,19.2401-4.9642,38.6662-9.0216,58.3386-11.7694,9.3543-1.3066,18.7586-2.3013,28.2246-2.794,9.2663-.4823,18.5147-1.139,27.7897-.6486,14.1729.7494,28.3251,1.767,42.1221,5.4158,8.7313,2.3091,16.6237,6.2599,23.2689,12.473,9.2725,8.6692,13.8944,19.6196,15.5719,31.9813,2.2449,16.5411-.8057,32.3985-6.5203,47.8329-5.6502,15.2612-12.3617,30.0807-19.3541,44.7693-12.5351,26.3321-26.5879,51.8281-42.4341,76.3201-4.4179,6.8284-9.0935,13.4903-13.6521,20.2277-1.0514,1.5539-2.1085,3.1038-3.5109,5.1672Zm-88.8002,80.2562c.156,3.3947.1338,6.8088.5013,10.1805,1.1176,10.2567,3.8034,20.0227,9.6974,28.6761,6.1316,9.0022,14.4746,14.652,25.2133,16.8854,5.0683,1.0541,10.153,1.3197,15.2242.8249,13.1549-1.2835,23.7075-7.1352,31.0169-18.3831,3.1179-4.7979,5.3311-9.9833,6.8541-15.4753,3.3837-12.2009,3.7562-24.5821,1.8733-37.0276-1.3086-8.649-3.8193-16.9451-8.6174-24.3913-6.0032-9.3171-14.2745-15.3754-25.204-17.8288-5.2497-1.1784-10.5125-1.2396-15.7844-.8546-11.0601.8079-20.3663,5.2964-27.5896,13.8175-4.3373,5.1167-7.2698,11.0029-9.3518,17.3427-2.799,8.5231-3.8838,17.2877-3.8335,26.2337Z"/>
  <path class="cls-15" d="m241.5253,752.4318c6.5739.6291,11.1464,3.2819,15.8309,5.7618,15.9638,8.4508,32.9523,14.2335,50.3343,18.9402,1.4049.3804,2.8975.4375,4.9219.7266-.6361-1.9161-1.0129-3.3128-1.5548-4.6423-4.8022-11.7816-8.2072-23.9247-10.1124-36.5267-3.1137-20.595-1.3583-40.7154,5.4434-60.3756,6.5213-18.8497,15.5748-36.4993,25.8704-53.5343,6.8583-11.3476,14.4283-22.202,22.7955-32.4996,5.0112-6.1674,9.9115-12.4249,14.9326-18.5841,2.0295-2.4896,4.1479-4.9244,6.407-7.2049,2.6481-2.6732,6.0748-3.7349,9.7651-3.9519,1.8441-.1084,2.8797,1.4804,1.9051,3.0318-.9999,1.5917-2.1948,3.0709-3.3907,4.5285-11.4081,13.9047-22.2754,28.2183-32.3732,43.1003-9.8866,14.5706-18.9116,29.655-26.8141,45.4069-10.1463,20.2245-14.5139,41.6153-13.6572,64.1914.712,18.7642,4.9266,36.6567,12.6076,53.7572,1.0764,2.3965,2.3697,4.6958,3.547,7.0095,8.5686,1.8255,16.9553,3.0909,25.4271,3.9475,10.7613,1.0881,21.5408,1.3682,32.3238.9273,8.3086-.3397,16.62-.9451,24.8894-1.818,9.0184-.9521,18.0148-2.1874,26.9767-3.5822,23.9542-3.7281,47.4678-9.3863,70.5367-16.8118,40.7467-13.1158,80.3994-28.9717,118.929-47.6354,6.9718-3.3772,14.1432-6.3489,21.2641-9.4109,4.382-1.884,8.8689-1.6042,13.3231-.1561.7101.2308,1.4056.5511,2.0505.928,1.5284.8932,1.6732,2.6628.224,3.7258-1.0543.7735-2.2301,1.4214-3.4282,1.9535-24.8943,11.0542-49.6124,22.532-74.7448,33.0179-42.4778,17.723-86.1466,31.9471-131.0496,42.2331-13.4587,3.083-27.0809,5.3178-40.7881,6.9804-4.5039.5462-9.0377.9508-13.5696,1.1411-10.0164.4208-20.0419.9562-30.0606.8978-9.8269-.0574-19.6497-.7961-29.4749-1.2218-.6819-.0296-1.3689.0565-2.185.0949,1.9592,4.182,4.8679,7.9284,11.564,14.7797,6.1911,6.3345,12.5327,12.5053,19.9334,17.6351,2.4083-1.8315,4.4807-3.4572,6.6048-5.0125,4.3007-3.1493,8.917-5.6573,14.0681-7.198,4.5324-1.3558,9.0199-1.3802,13.3465.4036,4.5386,1.8714,9.0194,3.9339,13.3577,6.2295,15.0662,7.9722,29.4369,17.1148,43.7539,26.3366,5.5672,3.5859,11.082,7.2541,16.5861,10.9364,5.642,3.7745,9.8252,8.8286,12.7275,14.9346,3.6724,7.726,3.4814,15.398-.8163,22.7947-1.5066,2.5931-3.3832,5.0336-5.4123,7.25-6.7705,7.395-13.7273,14.6193-20.5343,21.9814-5.5923,6.0484-12.577,8.7086-20.6685,9.1844-8.2818.4871-15.7058-1.9107-22.5915-6.2306-2.718-1.7052-5.3229-3.6245-7.8168-5.6466-16.3163-13.229-32.5861-26.5152-48.8757-39.7771-3.6687-2.9868-7.3558-5.9512-11.0346-8.9257-7.2907-5.8948-9.6973-11.4168-4.1744-21.9005,1.9587-3.7182,4.5861-6.9378,7.4913-9.9367,2.4835-2.5637,4.6333-5.3688,6.7561-8.2054-14.2067-10.5867-26.3127-22.7608-36.6095-36.6611-2.683-3.6219-5.6166-5.4137-10.1372-6.0946-19.3382-2.9127-38.1015-8.0172-55.9348-16.2014-9.9698-4.5754-19.9074-9.2209-30.194-13.9899-1.8493.1291-3.2884,1.7934-4.9947,2.9079-4.9347,3.223-10.037,6.0527-15.8097,7.5121-4.917,1.243-9.8262,1.3396-14.4193-.9322-5.2476-2.5956-10.4464-5.3419-15.4325-8.403-15.1712-9.3145-29.5901-19.7396-43.9568-30.2311-3.8203-2.7899-7.6022-5.633-11.3736-8.4887-4.7699-3.6116-8.3545-8.1988-10.9305-13.5727-4.663-9.7281-3.2634-18.7396,3.4122-27.0191,1.5372-1.9065,3.32-3.6343,5.1136-5.3122,7.0464-6.5915,14.1241-13.15,21.2243-19.6837,8.8599-8.1531,19.2425-9.8917,30.6112-6.9852,6.9352,1.7731,12.821,5.5528,18.1263,10.2296,7.0966,6.2558,14.1428,12.5704,21.132,18.9458,12.4396,11.3471,24.8334,22.7445,37.2099,34.1604,1.6612,1.5322,3.2656,3.1771,4.6222,4.9761,2.2809,3.0248,2.9605,6.4349,1.9765,10.1935-.829,3.1662-2.113,6.1194-4.1511,8.6266-2.3785,2.926-5.0467,5.6168-7.5862,8.4124-.8535.9395-1.6977,1.8875-3.2653,3.6317Z"/>
  <path class="cls-11" d="m1292.9741,325.0675c-.6217,10.508-2.9165,20.3317-8.9344,29.021-2.6093,3.7678-5.7121,7.0567-9.4514,9.7016-10.3875,7.3474-22.9554,7.4072-33.457.2709-5.7888-3.9337-10.1203-9.1599-13.0556-15.4042-7.523-16.0025-7.5481-32.1336-.0764-48.1832,2.4199-5.1979,5.9075-9.6577,10.2703-13.4186,5.1895-4.4736,11.2469-7.0298,18.0183-7.4944,5.3747-.3688,10.4986,1.065,15.2318,3.6911,5.5838,3.098,9.9389,7.4946,13.352,12.844,5.6658,8.8797,7.7819,18.7494,8.1024,28.9718Z"/>
</svg>