<?xml version="1.0" encoding="utf-8"?>
<!-- Generator: Adobe Illustrator 28.0.0, SVG Export Plug-In . SVG Version: 6.00 Build 0)  -->
<svg version="1.1" id="Capa_1" xmlns="http://www.w3.org/2000/svg" xmlns:xlink="http://www.w3.org/1999/xlink" x="0px" y="0px"
	 viewBox="0 0 512 512" style="enable-background:new 0 0 512 512;" xml:space="preserve">
<style type="text/css">
	.st0{fill:#0A64A0;}
</style>
<g>
	<path class="st0" d="M496.3,170.5c-1.5-3.9-5.8-5.8-9.7-4.3c-3.9,1.5-5.8,5.8-4.3,9.7c23.7,61.4,18.4,132.1-14,188.9
		c-11.7,20.6-32.9,33.1-56.5,33.4c-23.7,0.4-45.2-11.5-57.6-31.7c-11.6-19-11.6-43.1,0.2-61.4c0.8-1.2,1.5-2.5,2.3-3.7
		c8.2,12.4,22.2,20.5,37.8,20.5c4.1,0,7.5-3.4,7.5-7.5s-3.4-7.5-7.5-7.5c-14.4,0-26.8-10.3-29.6-24.2c1.9-6.3,3.2-12.7,3.7-19.1
		h31.8c9.9-0.3,9.9-14.7,0-15h-31.7c-0.5-6.6-1.7-13.2-3.7-19.7c3-13.8,15.2-23.7,29.5-23.7c4.1,0,7.5-3.4,7.5-7.5
		c0-4.1-3.4-7.5-7.5-7.5c-15.6,0-29.4,7.8-37.6,20c-0.8-1.4-1.6-2.8-2.5-4.1c-12-18.6-12.4-41.6-1.1-60c25-42.3,89.4-42.9,114.5-0.5
		c2.2,3.5,6.8,4.7,10.3,2.5c3.5-2.2,4.7-6.8,2.5-10.3c-30.6-51.9-109.5-51.3-140.1,0.5c-10.2,16.7-12.9,36.3-8.1,54.7
		c-12.9,0-25.9-1.3-38.6-3.9V15.5c0-8.5-7-15.5-15.5-15.5h-44.6c-8.5,0-15.5,7-15.5,15.5V189c-12.7,2.6-25.6,3.9-38.6,3.9
		c4.8-18.4,2.2-38.1-8.1-54.8c-15.5-25.2-42.4-39.9-72-39.4c-29.3,0.6-55.4,16.1-69.7,41.6c-40.1,71.6-39.8,160.4,0.9,231.7
		c14.4,25.2,40.3,40.6,69.3,41c28.9,0.5,55.5-14,70.6-38.8v0c12.5-20.4,14.2-45.6,5.1-67c15.4-4.4,29.9-11.9,42.4-22V419
		c0.3,9.9,14.7,9.9,15,0V277.7c0-4.6-2.7-8.7-6.9-10.5c-4.2-1.8-9-1-12.4,2.1c-13,11.9-28.7,20.4-45.6,24.6
		c-2.6-4.5-4.7-9.1-6.3-13.9c41.1-9,71.1-45.6,71.1-88.4v-176c0-0.3,0.2-0.5,0.5-0.5h14.5v147.2c0,59.8,40.5,112.2,97.5,127.8
		c-1.2,2.4-2.5,4.7-4,6.9c-1.4,2.1-2.6,4.3-3.7,6.5c-23.1-7-44.3-19.6-61.6-36.9c-2.8-2.8-5.5-5.7-8-8.6c-3.2-3.7-8.1-5-12.7-3.3
		c-4.6,1.7-7.5,5.9-7.5,10.8V497h-14.5c-0.3,0-0.5-0.2-0.5-0.5V454c-0.3-9.9-14.7-9.9-15,0v42.5c0,8.5,7,15.5,15.5,15.5h44.6
		c8.5,0,15.5-7,15.5-15.5V299.6c12.1,7.7,25.2,13.8,39,18c-4.9,18.9-2,39.5,8.6,56.8c14.9,24.4,40.8,38.8,69.3,38.8
		c0.4,0,0.9,0,1.3,0c29-0.5,55-15.8,69.3-41c17.2-30.1,27.6-64.5,30.1-99.5C513.9,238,508.7,202.7,496.3,170.5L496.3,170.5z
		 M157.9,366.5c-12.4,20.2-33.9,32-57.6,31.7c-23.7-0.4-44.8-12.9-56.6-33.4C5.7,298,5.4,214.8,43,147.8
		c11.7-20.8,32.9-33.5,56.9-34c50.1-1.4,86.9,53.1,55.4,96.3c-8.2-12.2-22-20-37.6-20c-4.1,0-7.5,3.4-7.5,7.5c0,4.1,3.4,7.5,7.5,7.5
		c14.4,0,26.5,9.9,29.5,23.7c-2,6.4-3.2,13-3.7,19.7h-31.7c-9.9,0.3-9.9,14.7,0,15h31.8c0.6,6.5,1.8,12.9,3.7,19.1
		c-2.8,13.9-15.3,24.2-29.6,24.2c-4.1,0-7.5,3.4-7.5,7.5s3.4,7.5,7.5,7.5c15.6,0,29.6-8.1,37.8-20.5c0.7,1.3,1.5,2.5,2.3,3.7
		C169.5,323.4,169.5,347.5,157.9,366.5L157.9,366.5z M158.8,265.3c-1.2-9.6-0.6-19.5,1.8-28.9c14.4,1.1,28.9,0.9,43.2-0.5
		C193.2,250.5,177.3,261.3,158.8,265.3z M212.8,219.6c-15.5,2.3-31.2,3.1-46.8,2.1c2.2-4.8,5.5-9.2,7.9-13.9
		c14.5,0.4,29-0.8,43.2-3.4C216.2,209.7,214.7,214.8,212.8,219.6L212.8,219.6z M282.9,220.9c-0.9,0.8-1.7,1.7-2.3,2.7
		c-11.1-18-17.4-39.1-17.4-61.4V15h15.1c0.3,0,0.5,0.2,0.5,0.5v176.3c0,5.4,3.8,10.1,9,11.2c16.5,3.6,33.4,5.2,50.3,4.8
		c1.1,2.1,2.3,4.2,3.6,6.3c1.6,2.5,3,5,4.3,7.6c-18,1.1-36,0-53.7-3.3C289,217.8,285.6,218.7,282.9,220.9L282.9,220.9z M293.8,241.2
		v-7.3c19,3.1,38.4,4,57.7,2.5c3.3,13,3.2,26.6-0.3,39.6C328.5,270.1,308.8,257.7,293.8,241.2z M278.8,496.5c0,0.3-0.2,0.5-0.5,0.5
		h-15.1V274.5c0.8,0.9,1.7,1.8,2.6,2.6c4.1,4.1,8.5,8,13,11.7V496.5z"/>
</g>
</svg>
