<?xml version="1.0" encoding="utf-8"?>
<!-- Generator: Adobe Illustrator 28.0.0, SVG Export Plug-In . SVG Version: 6.00 Build 0)  -->
<svg version="1.1" id="Layer_1" xmlns="http://www.w3.org/2000/svg" xmlns:xlink="http://www.w3.org/1999/xlink" x="0px" y="0px"
	 viewBox="0 0 512 512" style="enable-background:new 0 0 512 512;" xml:space="preserve">
<style type="text/css">
	.st0{fill:#0A64A0;}
</style>
<path class="st0" d="M415.1,415.7c-4.5-16.3-13.3-30.9-25.6-42.3c-6.8-6.3-14.6-11.6-23.4-16c1.1-5.5,0.6-11.3-1.5-16.7
	c-3.3-8.6-10.2-15.1-18.9-18c-0.3-0.1-0.5-0.1-0.8-0.2c-3.3-30.3-20.2-58.3-47.1-75.4c-19.2-12.2-33.1-25.4-42.9-40.8l10,2.2
	c10.5,2.3,21.4-0.7,29-8.2c14-13.5,21.4-29.8,22.8-49.6l6.1-2.4c4-1.6,7-4.8,8.3-8.9c1.3-4.1,0.6-8.5-1.8-12l-6.1-8.9
	c-4.5-6.7-6.4-14.7-5.4-22.7l2.4-18.8c2.4-18.3-2.9-36.7-14.5-50.9c-0.4-0.7-1-1.4-1.6-2c0,0-0.1-0.1-0.1-0.1
	C291.4,9.3,273,1,253.6,1h-47.1c-27.9,0-52.5,16.8-62.7,42.8c-2.9,7.5-4.8,15.4-5.7,23.3C111.3,68.9,90,91.2,90,118.5
	c0,28.4,23.1,51.5,51.5,51.5c9.5,0,18.4-2.6,26-7.1l-0.2,1.6c-3.4,24.7-5.5,49.8-6,74.7c-3.4,5.9-5.3,12.6-5.3,19.8v78.2
	c0,32.3,9.3,63.4,26.7,90c-0.4,22.8-8.3,45.4-23.1,63.7l-5.8,7.1c-2.8,3.4-2.2,8.5,1.2,11.2c1.5,1.2,3.3,1.8,5,1.8
	c2.3,0,4.6-1,6.2-3l5.8-7.1c13.1-16.2,21.5-35.2,24.9-55c1.5,1.7,3.1,3.5,4.7,5.1l54.9,57.5c3,3.2,8.1,3.3,11.3,0.3
	c3.2-3,3.3-8.1,0.3-11.3l-54.9-57.5c-26.5-27.8-41.1-64.3-41.1-102.8V259c0-13.2,10.8-24,24-24s24,10.8,24,24v102.5
	c0,21.5,7.4,42.5,20.9,59.2l70.5,87.3c1.6,2,3.9,3,6.2,3c1.8,0,3.5-0.6,5-1.8c3.4-2.8,4-7.8,1.2-11.2l-70.5-87.3
	c-11.2-13.9-17.4-31.3-17.4-49.1V259c0-2-0.2-4.1-0.4-6c15.1,5.7,30,8.6,45.2,8.6c3.2,0,6.4-0.1,9.6-0.4
	c21.5,14.1,35.2,36.5,38.4,60.9c-6.3,1.6-12.1,5.1-16.3,10.3l-5.9,7.2c-6.4,7.9-8.5,18.4-5.5,28.1c3,9.7,10.6,17.3,20.3,20.3
	l1.5,0.5c3,0.9,6,1.3,9,1.3c10.7,0,20.8-5.7,26.4-15.4l1.4-2.4c20.3,10.3,34.2,26.8,40,47.9c7.5,27.5-0.7,59.3-20.1,77.2
	c-3.2,3-3.4,8.1-0.4,11.3c1.6,1.7,3.7,2.6,5.9,2.6c2,0,3.9-0.7,5.4-2.1C414.4,486.7,424.3,449.2,415.1,415.7L415.1,415.7z
	 M158.8,49.6c7.7-19.8,26.5-32.6,47.8-32.6h47.1c13.6,0,26.6,5.4,36.1,14.9c-5.9,13.3-18.7,20.9-34.5,19.9
	c-7.6-0.5-14.5,4.5-16.4,11.8c-3,11.1-9,21.6-18.4,32.2c-10.3-7.2-19.3-5.1-25.1-2c-9.6,5.1-15.2,15.8-14.3,27.1
	c0.5,5.8,1.8,10.3,4,13.6c-1.6,2-3.9,3.6-6.9,5.1l-13.4-21.8C152.3,97.4,150.1,71.9,158.8,49.6L158.8,49.6z M106,118.5
	c0-18.3,13.9-33.4,31.7-35.3c0.9,15,5.4,29.8,13.4,42.9l12.4,20.2c-6.1,4.8-13.7,7.7-22,7.7C121.9,154,106,138.1,106,118.5z
	 M177.9,223.4c0.9-19,2.7-38,5.3-56.7l0.4-3.2c0.4-2.9,0.4-5.9,0.1-8.8c4.1-1.7,8.5-4.3,12.3-8.3c6,4.4,13,6.9,21.3,7.6
	c0.2,0,0.5,0,0.7,0c4.1,0,7.6-3.1,8-7.3c0.4-4.4-2.9-8.3-7.3-8.7c-8.6-0.8-14.6-4.2-19.4-11c-0.2-0.4-0.5-0.7-0.8-1.1
	c0-0.1-1.1-1.4-1.5-6.3c-0.4-4.9,1.9-9.5,5.9-11.6c2.4-1.3,4.7-1.6,8.4,1c6.6,4.7,15.7,3.6,21.1-2.5c11-12.5,18.2-25.2,21.9-38.7
	c19.2,1.2,35.9-7,45.7-21.4c4.1,8.8,5.8,18.6,4.5,28.4l-2.4,18.8c-1.5,11.9,1.3,23.8,8,33.7l4.6,6.9l-4.4,1.7
	c-5.4,2.1-9.1,7.2-9.5,13.1c-1,15.9-6.9,28.9-18,39.7c-3.8,3.7-9.2,5.2-14.5,4l-38.6-8.5c-4.3-0.9-8.6,1.8-9.5,6.1s1.8,8.6,6.1,9.5
	l7.9,1.7c7.7,16.3,18.6,30.4,33.6,43.2c-14.6-1.8-29.1-6.7-44-14.8c-0.2-0.1-0.4-0.2-0.7-0.3C216,223,206.5,219,196,219
	C189.5,219,183.3,220.6,177.9,223.4L177.9,223.4z M348.8,358.7l-4.4,7.7c-3.4,5.9-10.3,8.7-16.8,6.7l-1.5-0.5
	c-4.7-1.4-8.2-4.9-9.6-9.6s-0.5-9.6,2.6-13.4l5.9-7.2c2.8-3.4,7-5.4,11.3-5.4c1.5,0,3,0.2,4.5,0.7c4.1,1.4,7.4,4.5,9,8.6
	C351.3,350.4,350.9,354.9,348.8,358.7L348.8,358.7z"/>
</svg>
