<?xml version="1.0" encoding="utf-8"?>
<!-- Generator: Adobe Illustrator 28.0.0, SVG Export Plug-In . SVG Version: 6.00 Build 0)  -->
<svg version="1.1" id="Layer_1" xmlns="http://www.w3.org/2000/svg" xmlns:xlink="http://www.w3.org/1999/xlink" x="0px" y="0px"
	 viewBox="0 0 492 492" style="enable-background:new 0 0 492 492;" xml:space="preserve">
<style type="text/css">
	.st0{fill:#0A64A0;}
</style>
<g>
	<g>
		<g>
			<g>
				<path class="st0" d="M365.5,468.5c-0.4,0-0.7,0-1.1-0.1c-3.1-0.6-5.2-3.6-4.5-6.8L396.7,274c9.9-51.7-6.8-76.3-7-76.6
					c-0.3-0.4-0.5-0.8-0.7-1.2c-5.7-14.4-31-43.3-119.5-98.9C216,63.6,164.4,36.1,163.9,35.8c-2.8-1.5-3.9-5-2.4-7.8s5-3.9,7.8-2.4
					c0.5,0.3,52.5,28,106.4,61.9c72.5,45.6,114.2,80.5,123.9,103.8c2.9,4.5,18.5,31.8,8.5,84.8l-36.9,187.7
					C370.6,466.6,368.2,468.5,365.5,468.5L365.5,468.5z"/>
			</g>
			<g>
				<path class="st0" d="M209.4,443.5c-0.8,0-1.5-0.1-2.3-0.5c-2.9-1.3-4.3-4.7-3-7.6c1.6-3.8,3.2-7.6,4.6-11.5
					c1.1-3,4.4-4.5,7.4-3.5c3,1.1,4.6,4.4,3.5,7.4c-1.5,4.1-3.1,8.2-4.8,12.2C213.7,442.2,211.6,443.5,209.4,443.5z M225.8,308.9
					c-0.1,0-0.2,0-0.3,0c-3.2-0.2-5.6-2.9-5.4-6.1c1-17,4.1-36.7,18.8-56.2c-44.9-13.3-83.7-38.3-109-57.5
					C100.8,167,83.4,148,82.7,147.2c-2.2-2.4-2-6,0.4-8.1s6-2,8.1,0.4c0.7,0.8,69.8,75.4,159.2,98.4c1.9,0.5,3.5,2,4.1,3.9
					s0.1,4-1.2,5.5c-17.3,19.1-20.7,39.1-21.7,56.2C231.3,306.6,228.8,308.9,225.8,308.9z"/>
			</g>
		</g>
		<g>
			<path class="st0" d="M339.5,420.2c-3.2,0-5.8-2.6-5.8-5.8l0.2-142.6c0-1.5,0.6-3,1.7-4.1c24.9-24.8,29.4-41.9,28.7-51.8
				c-0.6-9.9-6.4-14.6-6.5-14.7c-0.1-0.1-0.2-0.1-0.2-0.2c-12.3-10.6-18.2-5.1-20.1-3.3c-4.8,4.4-8.3,12.2-12.4,21.2
				c-8.5,18.7-20.2,44.2-53.1,57.5c-2.3,0.9-7.5,3.5-7,7.1c0.5,3.6,5.6,7.8,13,8.6l14.8,0c7.1-0.4,17.8,3.1,18.7,14.6
				c0,0.2,0,0.3,0,0.5L311.4,411c0,3.2-2.6,5.8-5.8,5.8h0c-3.2,0-5.8-2.6-5.8-5.8l0.1-103.4c-0.5-3.8-5.2-3.9-6.7-3.8
				c-0.1,0-0.2,0-0.3,0l-15.3,0c-0.2,0-0.4,0-0.5,0c-12.2-1.1-22.1-8.9-23.5-18.4c-1.2-8.1,4.1-15.4,14.1-19.5
				c28.7-11.6,38.4-32.8,46.9-51.6c4.6-10.1,8.6-18.8,15-24.8c4.6-4.3,17.3-12.7,35.5,2.9c1.4,1.2,9.8,8.7,10.8,22.9
				c1.1,17.4-9.1,37.3-30.4,59l-0.2,140.2C345.2,417.7,342.6,420.2,339.5,420.2L339.5,420.2z"/>
		</g>
		<g>
			<path class="st0" d="M250.8,226.4c-5.9,0-11.5-2.3-15.7-6.5c-7.5-7.5-8.5-19.1-3-27.7l-83-83c-2.2-2.2-2.2-5.9,0-8.2
				s5.9-2.2,8.1,0l86.8,86.8c1.1,1.1,1.7,2.6,1.7,4.2c-0.1,1.6-0.7,3.1-1.9,4.1c-0.2,0.1-0.3,0.3-0.5,0.4c-2,2-3.1,4.7-3.1,7.6
				s1.1,5.6,3.1,7.6c2,2,4.7,3.1,7.6,3.1s5.6-1.1,7.6-3.1c2.5-2.5,3.6-6.1,3-9.6c-0.4-1.9,0.2-3.8,1.6-5.1s3.3-1.9,5.1-1.6
				c3.5,0.6,7.1-0.5,9.6-3c4.2-4.2,4.2-11,0-15.2c-2-2-4.7-3.1-7.6-3.1s-5.6,1.1-7.6,3.1c-0.1,0.1-0.3,0.3-0.4,0.5
				c-1,1.2-2.5,1.9-4.1,1.9s-3.1-0.6-4.2-1.7l-86.8-86.8c-2.2-2.2-2.2-5.9,0-8.2s5.9-2.2,8.1,0l83,83c3.5-2.3,7.7-3.5,12-3.5
				c5.9,0,11.5,2.3,15.7,6.5c8.7,8.7,8.7,22.8,0,31.5c-3.5,3.5-8.1,5.7-12.9,6.3c-0.6,4.8-2.8,9.4-6.3,12.9
				C262.3,224,256.7,226.3,250.8,226.4L250.8,226.4z"/>
		</g>
	</g>
	<g>
		<path class="st0" d="M225.5,411.6c-8.5,0-15.3-6.9-15.3-15.3v-15.9h-15.9c-8.5,0-15.3-6.9-15.3-15.3s6.9-15.3,15.3-15.3h15.9
			v-15.9c0-8.5,6.9-15.3,15.3-15.3s15.3,6.9,15.3,15.3v15.9h15.9c8.5,0,15.3,6.9,15.3,15.3s-6.9,15.3-15.3,15.3h-15.9v15.9
			C240.8,404.7,233.9,411.6,225.5,411.6L225.5,411.6z M194.3,361.2c-2.1,0-3.8,1.8-3.8,3.8s1.8,3.8,3.8,3.8h21.6
			c3.2,0,5.8,2.6,5.8,5.8v21.6c0,2.1,1.8,3.8,3.8,3.8s3.8-1.8,3.8-3.8v-21.6c0-3.2,2.6-5.8,5.8-5.8h21.6c2.1,0,3.8-1.8,3.8-3.8
			s-1.8-3.8-3.8-3.8h-21.6c-3.2,0-5.8-2.6-5.8-5.8v-21.6c0-2.1-1.8-3.8-3.8-3.8s-3.8,1.8-3.8,3.8v21.6c0,3.2-2.6,5.8-5.8,5.8
			L194.3,361.2z"/>
	</g>
	<g>
		<path class="st0" d="M225.5,432.7c-37.3,0-67.6-30.3-67.6-67.6s30.3-67.6,67.6-67.6s67.6,30.3,67.6,67.6S262.8,432.7,225.5,432.7z
			 M225.5,308.9c-30.9,0-56.1,25.2-56.1,56.1s25.2,56.1,56.1,56.1s56.1-25.2,56.1-56.1S256.4,308.9,225.5,308.9L225.5,308.9z"/>
	</g>
</g>
</svg>
