<?xml version="1.0" encoding="utf-8"?>
<!-- Generator: Adobe Illustrator 28.0.0, SVG Export Plug-In . SVG Version: 6.00 Build 0)  -->
<svg version="1.1" id="_x3C_Layer_x3E_" xmlns="http://www.w3.org/2000/svg" xmlns:xlink="http://www.w3.org/1999/xlink" x="0px"
	 y="0px" viewBox="0 0 32 32" style="enable-background:new 0 0 32 32;" xml:space="preserve">
<style type="text/css">
	.st0{fill:none;stroke:#0A64A0;stroke-linecap:round;stroke-linejoin:round;stroke-miterlimit:10;}
</style>
<g id="pediatrics_x2C__baby_care_x2C__baby">
	<g id="XMLID_2446_">
		<g>
			<path id="XMLID_2473_" class="st0" d="M8.5,30.5v-4l-3.6-2.8c-0.4-0.3-0.9-0.9-1.1-1.3l-2.4-5.5V12c0-0.6,2.1-1.5,2.7,0.9
				c0.2,0.8,0.2,1.5,0.3,2.1"/>
			<path id="XMLID_2472_" class="st0" d="M10.6,20.1c2.2,0.6,3.9,2.6,3.9,5v5.5"/>
			<path id="XMLID_2471_" class="st0" d="M8.8,21.9l-4.4-4.4c0.3-0.3,1.8-1.8,3.9,0.3l2.3,2.2"/>
			<g id="XMLID_2464_">
				<path id="XMLID_2470_" class="st0" d="M23.5,30.5v-4l3.6-2.8c0.4-0.3,0.9-0.9,1.1-1.3l2.4-5.5V12c0-0.6-2.1-1.5-2.7,0.9
					c-0.2,0.8-0.2,1.5-0.3,2.1"/>
				<path id="XMLID_2466_" class="st0" d="M21.4,20.1c-2.2,0.6-3.9,2.6-3.9,5v5.5"/>
				<path id="XMLID_2465_" class="st0" d="M23.2,21.9l4.4-4.4c-0.3-0.3-1.8-1.8-3.9,0.3l-2.3,2.2"/>
			</g>
			<path id="XMLID_2463_" class="st0" d="M23.2,21.9l4.4-4.4c-0.3-0.3-1.8-1.8-3.9,0.3l-2.3,2.2"/>
		</g>
		<g id="XMLID_2475_">
			<g id="XMLID_2525_">
				<path id="XMLID_2527_" class="st0" d="M16.4,8.6c-0.2-0.4-0.3-0.9-0.2-1.4c0.1-0.6-0.3-1.2-1-1.3s-1.2,0.3-1.3,1
					c-0.4,2.4,1.2,4.7,3.6,5.1c0.3,0.1,0.6,0.1,1,0.1"/>
				<path id="XMLID_2526_" class="st0" d="M17.2,9.4C16.4,9,16,8.1,16.1,7.2c0.1-0.9,0.8-1.5,1.7-1.7c0,0,0-0.1,0-0.1
					c0.4-2.5,2.8-4.2,5.4-3.8s4.4,2.8,4.1,5.4c-0.4,3.5-4.5,5.1-5,5.5c-0.8,0.6-2.1,7.3-8.3,6.1c-2.4-0.4-4.6-2.9-2.6-8.2
					c-0.7,2-1.4,2.1-1.9,2.3c-0.8,0.2-2.4-0.4-2.2-1.6c0.2-1.3,1.8-0.9,1.8-0.9c0.5-1.8,1.8-2.8,3.4-2.4c2,0.5,2.2,3,1.7,4.8"/>
			</g>
		</g>
	</g>
</g>
</svg>
