<?xml version="1.0" encoding="utf-8"?>
<!-- Generator: Adobe Illustrator 28.0.0, SVG Export Plug-In . SVG Version: 6.00 Build 0)  -->
<svg version="1.1" id="_x33_0" xmlns="http://www.w3.org/2000/svg" xmlns:xlink="http://www.w3.org/1999/xlink" x="0px" y="0px"
	 viewBox="0 0 512 512" style="enable-background:new 0 0 512 512;" xml:space="preserve">
<style type="text/css">
	.st0{fill:#0A64A0;}
</style>
<g>
	<path class="st0" d="M408.6,241c-11.9-24.9-37.4-41-65-41H336c-22.1,0-40,17.9-40,40v3.1l-7.2-3.6c-5.4-2.7-8.8-8.2-8.8-14.3V106.4
		l12-18c2.6-4,4-8.6,4-13.3V32c0-13.2-10.8-24-24-24h-32c-13.2,0-24,10.8-24,24v43.2c0,4.7,1.4,9.3,4,13.3l12,18v118.7
		c0,6.1-3.4,11.6-8.8,14.3l-7.2,3.6V240c0-22.1-17.9-40-40-40h-7.6c-27.6,0-53.1,16.1-65,41L50.3,352.6
		C43.6,366.7,40,382.5,40,398.1C40,456.5,87.5,504,145.9,504h6.1c35.3,0,64-28.7,64-64V307.3l18.3-18.3c5.7-5.7,13.6-9,21.7-9
		c8.1,0,16,3.3,21.7,9l18.3,18.3V440c0,35.3,28.7,64,64,64h6.1c58.4,0,105.9-47.5,105.9-105.9c0-15.6-3.6-31.4-10.3-45.5L408.6,241z
		 M278.7,79.6l-14.7,22v21.5l-16-8v-13.5l-14.7-22c-0.9-1.3-1.3-2.9-1.3-4.4V72h48v3.2C280,76.7,279.5,78.3,278.7,79.6z M264,216
		h-16v-32h16V216z M248,132.9l16,8V168h-16V132.9z M240,24h32c4.4,0,8,3.6,8,8v24h-48V32C232,27.6,235.6,24,240,24z M200,440
		c0,26.5-21.5,48-48,48h-6.1C96.3,488,56,447.7,56,398.1c0-13.3,3-26.6,8.7-38.6l53.1-111.5c9.2-19.4,29.1-31.9,50.6-31.9h7.6
		c13.2,0,24,10.8,24,24V440z M289,277.7c-8.7-8.7-20.7-13.7-33-13.7s-24.3,5-33,13.7l-7,7v-23.7l14.3-7.2
		c8.8-4.4,14.9-12.4,16.9-21.8h17.6c2,9.4,8.1,17.4,16.9,21.8l14.3,7.2v23.7L289,277.7z M366.1,488H360c-26.5,0-48-21.5-48-48V240
		c0-13.2,10.8-24,24-24h7.6c21.5,0,41.3,12.5,50.6,31.9l53.1,111.5c5.7,12,8.7,25.4,8.7,38.6C456,447.7,415.7,488,366.1,488z"/>
	<circle class="st0" cx="368" cy="352" r="8"/>
	<circle class="st0" cx="368" cy="416" r="8"/>
	<path class="st0" d="M407.9,352.8c0-0.3,0.1-0.5,0.1-0.8c0-22.1-17.9-40-40-40s-40,17.9-40,40c0,13.1,6.4,24.7,16.2,32
		c-9.8,7.3-16.2,18.9-16.2,32c0,22.1,17.9,40,40,40c16.6,0,30.8-10.1,36.9-24.5c19.7-2.4,35.1-19.1,35.1-39.5
		C440,372.7,426.2,356.5,407.9,352.8L407.9,352.8z M344,352c0-13.2,10.8-24,24-24s24,10.8,24,24s-10.8,24-24,24S344,365.2,344,352z
		 M368,440c-13.2,0-24-10.8-24-24s10.8-24,24-24s24,10.8,24,24S381.2,440,368,440z M407.8,414.5c-0.5-12.5-6.7-23.5-16.1-30.5
		c5.4-4,9.8-9.3,12.6-15.6c11.2,2.1,19.6,11.8,19.6,23.6C424,402.3,417.4,411.1,407.8,414.5L407.8,414.5z"/>
	<path class="st0" d="M100.1,132.6l51.5-7C179.2,121.8,200,98,200,70.1V8h-16v62.1c0,19.9-14.9,36.9-34.6,39.6l-51.5,7
		c-51.3,7-90,51.3-90,103V296h16v-76.2C24,176,56.7,138.5,100.1,132.6z"/>
	<path class="st0" d="M414,116.8l-51.5-7C342.9,107,328,90,328,70.1V8h-16v62.1c0,27.9,20.8,51.7,48.4,55.5l51.5,7
		c43.4,5.9,76.1,43.4,76.1,87.2V296h16v-76.2C504,168,465.3,123.7,414,116.8z"/>
</g>
</svg>
