<?xml version="1.0" encoding="utf-8"?>
<!-- Generator: Adobe Illustrator 28.0.0, SVG Export Plug-In . SVG Version: 6.00 Build 0)  -->
<svg version="1.1" id="Layer_1" xmlns="http://www.w3.org/2000/svg" xmlns:xlink="http://www.w3.org/1999/xlink" x="0px" y="0px"
	 viewBox="0 0 512 512" style="enable-background:new 0 0 512 512;" xml:space="preserve">
<style type="text/css">
	.st0{fill:#0A64A0;}
</style>
<path class="st0" d="M501,227c3.3,0,6-2.7,6-6V83.4c0-3.3-2.7-6-6-6H321c-3.3,0-6,2.7-6,6V221c0,3.3,2.7,6,6,6h33.2l-6.3,20.2h-60
	c0.4-6.2,0.6-12.6,0.6-18.9c0-40.9-8.8-79.4-24.8-108.4c-16.6-30.2-39.1-46.8-63.2-46.8H93c-24.2,0-46.7,16.6-63.2,46.8
	C13.8,149,5,187.5,5,228.3c0,32.3,5.4,63,15.8,89.2C11.3,323.4,5,333.8,5,345.7v87.2c0,3.3,2.7,6,6,6h162.9h317.2
	c8.8,0,15.9-7.1,15.9-15.9v-23c0-8.8-7.1-15.9-15.9-15.9h-25.5v-28.4l8.8-37.5h16.1c9.1,0,16.5-7.4,16.5-16.5v-38.1
	c0-9.1-7.4-16.5-16.5-16.5h-16.5l-6.3-20.2H501z M327,89.4h168V215H327V89.4z M253.3,125.7c15,27.3,23.3,63.8,23.3,102.6
	c0,6.3-0.2,12.6-0.7,18.9h-16c0.4-6.2,0.6-12.5,0.6-18.9c0-71.3-26.3-127.2-59.9-127.2s-59.9,55.9-59.9,127.2
	c0,33.2,5.7,63.1,15.2,85.5c-2.9-0.9-6-1.3-9.2-1.3h-7.3c-9.6-24.6-14.7-53.6-14.7-84.2c0-38.9,8.3-75.3,23.3-102.6
	c14.4-26.2,33.1-40.6,52.7-40.6C220.2,85.1,239,99.5,253.3,125.7L253.3,125.7z M152.7,228.3c0-1.5,0-2.9,0-4.4h41.1
	c9.9,0,17.9,8,17.9,17.9v5.3h-58.4C152.9,241.1,152.7,234.8,152.7,228.3L152.7,228.3z M193.8,212h-40.6
	c3.6-59.7,26.2-98.8,47.4-98.8c23.1,0,47.9,46.3,47.9,115.2c0,6.3-0.2,12.6-0.7,18.9h-24.1v-5.3C223.7,225.4,210.3,212,193.8,212
	L193.8,212z M368.5,384.1V361H405v23.1H368.5z M347.6,318.2l8.8,37.5v28.4H179.9v-4.8c6.7,2.8,13.7,4.2,20.7,4.2
	c28.9,0,55.6-24.3,71.9-65.4L347.6,318.2L347.6,318.2z M200.6,371.6c-7,0-14-1.9-20.7-5.5V348c6.4,4.9,13.4,7.5,20.7,7.5
	c16.6,0,31.7-13.2,42.8-37.3h16.1C245,351.8,223.4,371.6,200.6,371.6L200.6,371.6z M200.6,343.5c-10.3,0-20.9-9.1-29.5-25.3H230
	C221.5,334.4,211,343.5,200.6,343.5L200.6,343.5z M17,228.3c0-38.9,8.3-75.3,23.3-102.6C54.7,99.5,73.4,85.1,93,85.1h73.2
	c-10.8,7.9-20.6,19.7-28.9,34.8c-16,29.1-24.8,67.6-24.8,108.4c0,30.3,4.8,59.1,13.9,84.2H38.2c-2.2,0-4.2,0.2-6.3,0.6
	C22.2,288.4,17,259.2,17,228.3z M167.9,426.9H17v-81.2c0-11.7,9.5-21.2,21.2-21.2h108.4c11.7,0,21.2,9.5,21.2,21.2L167.9,426.9
	L167.9,426.9z M495,400v23c0,2.1-1.8,3.9-3.9,3.9H179.9v-30.8h311.2C493.2,396.1,495,397.9,495,400L495,400z M417,384.1V361h36.6
	v23.1H417z M454.8,349h-87.6l-7.3-30.8h102.1L454.8,349z M495,263.7v38.1c0,2.5-2,4.5-4.5,4.5H165.6c-5.1-12.9-9.1-28.8-11.2-47
	h336.1C493,259.2,495,261.2,495,263.7L495,263.7z M461.5,247.2h-101l6.3-20.2h88.3L461.5,247.2z M344.3,158.2H411c3.3,0,6-2.7,6-6
	v-42.8c0-3.3-2.7-6-6-6h-66.7c-3.3,0-6,2.7-6,6v42.8C338.3,155.5,341,158.2,344.3,158.2L344.3,158.2z M350.3,115.4H405v30.8h-54.7
	L350.3,115.4z M484.6,118.1c0,3.3-2.7,6-6,6h-37.1c-3.3,0-6-2.7-6-6s2.7-6,6-6h37.1C481.9,112.1,484.6,114.8,484.6,118.1z
	 M484.6,143.5c0,3.3-2.7,6-6,6h-37.1c-3.3,0-6-2.7-6-6s2.7-6,6-6h37.1C481.9,137.5,484.6,140.2,484.6,143.5z M484.6,184.1
	c0,3.3-2.7,6-6,6H345.4c-3.3,0-6-2.7-6-6s2.7-6,6-6h133.2C481.9,178.1,484.6,180.8,484.6,184.1L484.6,184.1z M66,259.4
	c17.1,0,31.1-13.9,31.1-31.1S83.1,197.3,66,197.3s-31,13.9-31,31.1S48.9,259.4,66,259.4z M66,209.3c10.5,0,19.1,8.6,19.1,19.1
	s-8.5,19.1-19.1,19.1s-19-8.6-19-19.1S55.5,209.3,66,209.3z M62.5,123.4c0-3.3,2.7-6,6-6h42.9c3.3,0,6,2.7,6,6s-2.7,6-6,6H68.5
	C65.2,129.4,62.5,126.7,62.5,123.4z M46.3,161.5c0-3.3,2.7-6,6-6h42.9c3.3,0,6,2.7,6,6s-2.7,6-6,6H52.3
	C49,167.5,46.3,164.8,46.3,161.5z M101.2,295.2c0,3.3-2.7,6-6,6H52.3c-3.3,0-6-2.7-6-6s2.7-6,6-6h42.9
	C98.5,289.2,101.2,291.8,101.2,295.2z M142.3,355.8c0,3.3-2.7,6-6,6H48.6c-3.3,0-6-2.7-6-6s2.7-6,6-6h87.6
	C139.6,349.8,142.3,352.5,142.3,355.8z M142.3,392.6c0,3.3-2.7,6-6,6H48.6c-3.3,0-6-2.7-6-6s2.7-6,6-6h87.6
	C139.6,386.6,142.3,389.3,142.3,392.6z"/>
</svg>
