<?xml version="1.0" encoding="utf-8"?>
<!-- Generator: Adobe Illustrator 28.0.0, SVG Export Plug-In . SVG Version: 6.00 Build 0)  -->
<svg version="1.1" id="Layer_1" xmlns="http://www.w3.org/2000/svg" xmlns:xlink="http://www.w3.org/1999/xlink" x="0px" y="0px"
	 viewBox="0 0 512 512" style="enable-background:new 0 0 512 512;" xml:space="preserve">
<style type="text/css">
	.st0{fill:#0A64A0;}
</style>
<g id="Urology">
	<path class="st0" d="M450.3,44.6c-11.9-21.3-31.6-37.2-54.9-44.3c-21.5-6.6-44.4,5.5-51,27c-1.9,6.3-2.3,12.9-1.1,19.4
		c2.5,13.4,4.3,27.2,5.3,40.9c0.3,3.4-2,6.4-5.3,7l-9.1,2.1c-36.1,8.6-60.2,42.6-56.5,79.5c7.7,73.8,9.1,70.5,0,132.7
		c-0.2,1.7-1.8,2.9-3.5,2.6c-0.1,0-0.1,0-0.2,0c-12.5-2.1-25.3-2.1-37.8,0c-0.9,0.2-1.8,0-2.6-0.6c-1.4-1-0.9,0-4.7-26.7
		c-5.3-36.4-1.4-57.6,3.8-107.9c3.7-36.9-20.5-70.8-56.5-79.5l-8.5-2.1c-3.3-0.6-5.6-3.6-5.3-6.9c1.2-13.8,3-27.6,5.3-41.1
		c4-22.2-10.8-43.4-33-47.4c-6-1.1-12.2-0.8-18.1,0.9C93.2,7.4,73.5,23.3,61.7,44.6C32.1,97.2,31.9,161.3,61.2,214
		c15,27.2,39.8,47.6,69.3,57.1c17.1,5.7,35.6-3.6,41.3-20.7c1.6-4.9,2.1-10.1,1.3-15.2c-6.5-44.6-10.7-67.5-11.3-101.9
		c-0.1-3.9,2.9-7.1,6.8-7.2c0.5,0,1,0,1.5,0.1c21.3,5.1,35.5,25.2,33.3,47c-8.1,78.8-9.4,74.2,1.1,147.7c0.2,1.2-0.3,2.3-1.3,3
		c-10.9,6.2-20.3,14.7-27.6,25c-34.6-15.6-75.4-0.2-91,34.4s-0.2,75.4,34.4,91c29.9,13.5,65.2,4,84.3-22.7c1.4,0.9,4.4,2.5,6.8,3.7
		c5.7,3.7,8.8,10.4,7.9,17.2l-3.8,33.6c-0.3,2.9,1.8,5.6,4.7,5.9c2.9,0.3,5.6-1.8,5.9-4.7c4.1-35.8,5.1-37.3,2.8-45.2
		c9.2,2.6,18.7,4,28.2,4.1c2.9,0,5.3-2.4,5.3-5.3s-2.4-5.3-5.3-5.3c-14.4,0-28.5-3.3-41.3-9.8c-2-1.1-2.6-1.2-6.1-3.2
		c15.8-31.2,5.6-69.4-23.7-88.5c6.1-8.5,14-15.6,23.1-20.9c4.8-2.8,7.3-8.3,6.6-13.8c-10.3-72.3-9.1-66.6-1-145.1
		c2.8-27.2-14.9-52.3-41.5-58.7c-9.6-2-19,4.1-21,13.7c-0.3,1.3-0.4,2.7-0.4,4c0.6,35.4,4.8,58,11.4,103.3c1.8,12-6.4,23.2-18.4,25
		c-3.4,0.5-6.9,0.2-10.1-0.9c-26.9-8.7-49.4-27.4-63.1-52.1C43.1,159.2,43.3,99.1,70.9,49.9c10.5-18.9,28-33,48.7-39.2
		c15.9-4.9,32.8,4.1,37.7,20c1.4,4.6,1.7,9.5,0.8,14.3c-2.6,13.8-4.4,27.9-5.7,42.1c-0.6,8.5,5,16.2,13.3,18.2l8.5,2
		c30.9,7.4,51.5,36.5,48.3,68.1c-7.9,77.2-8.9,74.7,0,135.4c1.1,7.5,8,12.8,15.6,11.7c0.1,0,0.3,0,0.4-0.1c11.3-1.9,22.9-1.9,34.2,0
		c7.5,1.3,14.6-3.7,15.9-11.2c0-0.1,0-0.3,0.1-0.4c9-63.6,7.5-60.9,0-135.3c-3.2-31.6,17.3-60.8,48.2-68.3l9.1-2.1
		c8.4-2,14-9.7,13.3-18.3c-1.3-14-3.1-28.1-5.7-41.9c-3-16.4,7.9-32.1,24.2-35c4.8-0.9,9.7-0.6,14.3,0.9
		c20.7,6.2,38.2,20.3,48.7,39.2c27.5,49.4,27.6,109.5,0.3,159c-13.7,24.7-36.2,43.4-63.1,52.1c-11.5,3.8-23.9-2.5-27.7-14
		c-1.1-3.3-1.4-6.7-0.9-10.1c6.4-43.8,10.7-67.7,11.4-103.9c0.1-9.6-7.5-17.5-17.1-17.6c-1.4,0-2.8,0.1-4.2,0.5
		c-26.8,6.2-44.7,31.3-42,58.7c8.8,85,8.7,77.5-0.9,144.8c-0.8,5.5,1.8,11,6.6,13.8c48.3,27.6,47,86.4-4.3,112
		c-10.7,5.4-16.8,16.9-15.3,28.8l3.8,33.6c0.3,2.9,3,5.1,5.9,4.7c2.9-0.3,5.1-3,4.7-5.9l0,0l-3.8-33.6c-1-7.4,2.8-14.7,9.4-18.2
		c58.7-29.3,60.7-98.9,4.9-130.8c-1-0.6-1.5-1.8-1.3-3c10.7-72.7,9.2-68.2,1-147.4c-2.1-21.9,12.2-41.9,33.5-47
		c3.6-1.1,7.4,1,8.4,4.6c0.2,0.6,0.3,1.3,0.3,2c-0.6,35.1-4.7,57.5-11.3,102.5c-2.7,17.9,9.7,34.5,27.5,37.2
		c5.1,0.8,10.3,0.3,15.2-1.3C468.2,243.3,496.6,127.5,450.3,44.6z M205.3,412.9c0,32.1-26,58.2-58.1,58.2c-32.1,0-58.2-26-58.2-58.1
		s26-58.2,58.1-58.2c0,0,0,0,0.1,0C179.3,354.7,205.3,380.7,205.3,412.9C205.3,412.9,205.3,412.9,205.3,412.9z"/>
	<path class="st0" d="M161.6,384c0-2.9-2.4-5.3-5.3-5.3H138c-2.9,0-5.3,2.4-5.3,5.3v14.3h-14.3c-2.9,0-5.3,2.4-5.3,5.3v18.2
		c0,2.9,2.4,5.3,5.3,5.3h14.3v14.4c0,2.9,2.4,5.3,5.3,5.3h18.2c2.9,0,5.3-2.4,5.3-5.3v-14.4H176c2.9,0,5.3-2.4,5.3-5.3v-18.1
		c0-2.9-2.4-5.3-5.3-5.3h-14.4V384z M170.7,409.1v7.6h-14.4c-2.9,0-5.3,2.4-5.3,5.3v14.4h-7.6V422c0-2.9-2.4-5.3-5.3-5.3h-14.3v-7.6
		H138c2.9,0,5.3-2.4,5.3-5.3v-14.5h7.6v14.3c0,2.9,2.4,5.3,5.3,5.3L170.7,409.1z"/>
	<path class="st0" d="M281,363c-16.5-7.6-35.6-7.2-51.8,1c-2.7,1.1-4.1,4.2-3,6.9c1.1,2.7,4.2,4.1,6.9,3c0.4-0.2,0.8-0.3,1.1-0.6
		c13.3-6.5,28.7-6.8,42.2-0.7c2.7,1.3,5.8,0.1,7.1-2.5C284.7,367.4,283.6,364.3,281,363z"/>
	<path class="st0" d="M265.1,480.9c-2.9,0.3-5,3-4.7,5.9c0,0,0,0,0,0l2.3,20.5c0.3,2.9,3,5,5.9,4.7c0,0,0,0,0,0c2.9-0.3,5-3,4.7-5.9
		l-2.3-20.7C270.5,482.5,267.9,480.5,265.1,480.9z"/>
</g>
</svg>
