<?xml version="1.0" encoding="utf-8"?>
<!-- Generator: Adobe Illustrator 28.0.0, SVG Export Plug-In . SVG Version: 6.00 Build 0)  -->
<svg version="1.1" id="Capa_1" xmlns="http://www.w3.org/2000/svg" xmlns:xlink="http://www.w3.org/1999/xlink" x="0px" y="0px"
	 viewBox="0 0 512 512" style="enable-background:new 0 0 512 512;" xml:space="preserve">
<style type="text/css">
	.st0{fill:#0A64A0;}
</style>
<g>
	<path class="st0" d="M425.8,204.6c-12.3-7-28.8-12.2-46.9-15.4c-3.1-8.8-6.8-18-10.5-26.8c10.6-5.8,18.5-13.7,23.2-23.1
		c5.1-10.5,5.8-22.2,1.9-32.8c-6.1-16.5-24.3-30.4-50.5-24.4c-4-6.7-8.3-12.7-12.7-18.1l11.7-15.3l-37.6-28.8l-12.2,16
		c-3.2-1.1-6.4-1.9-9.7-2.5l-3.9-20.1l-46.5,8.9l3.9,20.3c-8.6,5-16.8,11.8-24.2,19.9c-6.3-11.9-11.4-31.5-14.2-55.8L196.6,0h-51.1
		l-2.2,3.3c-9.5,13.9-16.6,35.2-19.5,58.4l14.9,1.9c2.4-19.1,7.8-36.5,14.9-48.5h29.7c4.5,32.4,11.8,50.1,18.3,59.9
		c-4.5,6.5-8.6,13.5-12.1,21c-1.2,2.6-2.3,5.2-3.4,7.8c-15.7,5.3-30,12.1-42.7,20.1c-4.5-11.8-6.7-27.9-6-45.5l-15-0.6
		c-0.8,21.5,2.1,40.6,8.4,54.8c-30.8,23.7-50,56.1-55.5,95.1c-7.7,54.8,0.8,106.1,25.3,152.7c24.3,46,62.9,84.8,114.8,115.2
		c18.7,11,34.8,16.5,49,16.5c14.7,0,27.5-5.9,39.2-17.6c11.9-12,22.7-24.2,32.2-36.2l-11.8-9.3c-9.1,11.6-19.6,23.3-31.1,34.9
		c-7.9,8-16.6,13.3-28.6,13.3c-10.6,0-23.8-4.2-41.4-14.5c-49.5-29-86.2-65.8-109.2-109.3c-23.1-43.7-31.1-92-23.8-143.6
		c9-63.4,55.5-93.8,90-107.9c-4.2,16.7-5.3,33.8-3.1,50.1c-6.3,2.3-13.1,4.4-20.5,6.3l3.8,14.5c45.9-12.1,72.1-31,97.5-49.3
		c22.5-16.2,45.8-33,83.6-45.4c20-6.6,33.3,2.2,37.7,13.8c4.7,12.6-0.7,30.6-23.7,40.2c-4.1,1.7-8.5,3.4-13.2,5.3
		c-24.8,9.9-55.7,22.1-71.5,39.4c-26.8,29.3-27.7,56.9-28.5,81.2c-0.7,22.2-1.4,41.3-19.6,61.2l11.1,10.1c22-24,22.8-47.8,23.5-70.8
		c0.2-6.1,0.4-12,1-18c15,11.2,33.9,31.3,38.9,57.5l14.7-2.8c-5.5-29.1-25.2-52.3-44.1-66.4c21.9-9.8,40.5-14.9,61.7-17.2
		c12.9-1.4,29.5-1.7,46.2,1.8c16.3,74.3,2.4,140.9-42.6,203.4l12.2,8.8c46-63.9,61.3-131.8,46.7-207.2c3.8,1.5,7.6,3.3,11.2,5.4
		c8.6,4.9,17.8,5.3,25.2,1c6.7-3.9,10.8-11.1,10.8-18.8C439.4,217.3,434.4,209.6,425.8,204.6L425.8,204.6z M249.2,131.3
		c-17.6,12.7-34.6,24.9-57.7,35c-2.1-21,1.9-43.4,11.6-64.1c10.5-22.4,26.7-40.3,44.4-48.9l5.2-2.5l-3.2-16.6l17.1-3.3l3.1,16.3
		l5.7,0.5c5.5,0.5,10.9,1.9,16.1,4.2l5.4,2.4L307,41l13.8,10.6l-10.1,13.2l4.3,4.6c4.6,5,9,10.9,13.2,17.4
		C293.3,99.6,270.9,115.7,249.2,131.3L249.2,131.3z M347.9,171.2c2.3-0.9,4.5-1.8,6.7-2.7c2.5,6,5,12.2,7.4,18.3
		c-16.6-1.7-33.9-1.9-49.9-0.3C323.8,180.8,336.5,175.7,347.9,171.2z M421.1,231.7c-2.7,1.6-6.3,1.2-10.2-1.1
		c-22-12.6-50.6-17.4-82.8-14c-22.1,2.4-41.4,7.5-63.6,17.2c3.4-8.4,8.5-16.9,16.3-25.7c17.3-6.1,43-8.8,69.2-7.2
		c27.8,1.7,52.8,7.7,68.4,16.7c3.9,2.2,6.1,5.2,6.1,8.3C424.4,228.3,423.2,230.5,421.1,231.7L421.1,231.7z"/>
	<path class="st0" d="M343.6,245.8h15v15h-15V245.8z"/>
	<path class="st0" d="M351.2,275.8h15v15h-15V275.8z"/>
</g>
</svg>
